{"title":"IT 2017 New HDTS x264 AC3 TiTAN","magnet":"magnet:?xt=urn:btih:046209c4095657393df60e9e9357b2e1f6542f68&dn=IT+2017+New+HDTS+x264+AC3+TiTAN&tr=udp%3A%2F%2Ftracker.leechers-paradise.org%3A6969&tr=udp%3A%2F%2Fzer0day.ch%3A1337&tr=udp%3A%2F%2Fopen.demonii.com%3A1337&tr=udp%3A%2F%2Ftracker.coppersurfer.tk%3A6969&tr=udp%3A%2F%2Fexodus.desync.com%3A6969","uploader":"makintos13","categoryP":"video","categoryS":"movies","size":"2363962904","seeders":"293","leechers":"305","description":"screens:\r\n <a href=\"\nhttps://imgmak.com/7Z0\" rel=\"nofollow\" target=\"_NEW\">\nhttps://imgmak.com/7Z0</a>\r\n <a href=\"\nhttps://imgmak.com/7ZA\" rel=\"nofollow\" target=\"_NEW\">\nhttps://imgmak.com/7ZA</a>\r\n <a href=\"\nhttps://imgmak.com/7ZD\" rel=\"nofollow\" target=\"_NEW\">\nhttps://imgmak.com/7ZD</a>\r\n <a href=\"\nhttps://imgmak.com/7Zf\" rel=\"nofollow\" target=\"_NEW\">\nhttps://imgmak.com/7Zf</a>\r\n <a href=\"\nhttps://imgmak.com/7ZE\" rel=\"nofollow\" target=\"_NEW\">\nhttps://imgmak.com/7ZE</a>\r\n <a href=\"\nhttps://imgmak.com/7Zl\" rel=\"nofollow\" target=\"_NEW\">\nhttps://imgmak.com/7Zl</a>\r\n <a href=\"\nhttps://imgmak.com/7ZV\" rel=\"nofollow\" target=\"_NEW\">\nhttps://imgmak.com/7ZV</a>\r\n <a href=\"\nhttps://imgmak.com/7Ze\" rel=\"nofollow\" target=\"_NEW\">\nhttps://imgmak.com/7Ze</a>\r\n\r\n\r\nSource: CPG -THX \r\n <a href=\"\nhttp://www.imdb.com/title/tt1396484/\" rel=\"nofollow\" target=\"_NEW\">\nhttp://www.imdb.com/title/tt1396484/</a>\r\n\r\nGeneral\r\n\r\nFormat : Matroska\r\nFormat version : Version 2\r\nFile size : 2.20 GiB\r\nDuration : 2h 8mn\r\nOverall bit rate mode : Variable\r\nOverall bit rate : 2 446 Kbps\r\n\r\nVideo\r\nID : 1\r\nFormat : AVC\r\nFormat/Info : Advanced Video Codec\r\nFormat profile : <a href=\"/cdn-cgi/l/email-protection\" class=\"__cf_email__\" data-cfemail=\"4109282629010d756f70\">[email&#xA0;protected]</a>\r\nFormat settings, CABAC : Yes\r\nFormat settings, ReFrames : 3 frames\r\nCodec ID : V_MPEG4/ISO/AVC\r\nDuration : 2h 8mn\r\nBit rate mode : Variable\r\nBit rate : 2 250 Kbps\r\nMaximum bit rate : 40.0 Mbps\r\nWidth : 720 pixels\r\nHeight : 304 pixels\r\nDisplay aspect ratio : 2.35:1\r\nFrame rate mode : Constant\r\nFrame rate : 60.000 fps\r\nColor space : YUV\r\nChroma subsampling : 4:2:0\r\nBit depth : 8 bits\r\nScan type : Progressive\r\nBits/(Pixel*Frame) : 0.171\r\nStream size : 1.98 GiB (90%)\r\nDefault : Yes\r\nForced : No\r\nColor primaries : BT.709\r\nTransfer characteristics : BT.709\r\nMatrix coefficients : BT.709\r\n\r\nAudio\r\nID : 2\r\nFormat : MPEG Audio\r\nFormat version : Version 1\r\nFormat profile : Layer 3\r\nCodec ID : A_MPEG/L3\r\nCodec ID/Hint : MP3\r\nDuration : 2h 8mn\r\nBit rate mode : Constant\r\nBit rate : 192 Kbps\r\nChannel(s) : 2 channels\r\nSampling rate : 44.1 KHz\r\nCompression mode : Lossy\r\nStream size : 177 MiB (8%)\r\nWriting library : LAME3.99.5\r\nLanguage : English\r\nDefault : Yes\r\nForced : No","last_updated":"2017-09-16T12:12:46.910Z","parsed":{"xt":"urn:btih:046209c4095657393df60e9e9357b2e1f6542f68","dn":"IT 2017 New HDTS x264 AC3 TiTAN","tr":["udp://exodus.desync.com:6969","udp://open.demonii.com:1337","udp://tracker.coppersurfer.tk:6969","udp://tracker.leechers-paradise.org:6969","udp://zer0day.ch:1337"],"infoHash":"046209c4095657393df60e9e9357b2e1f6542f68","infoHashBuffer":{"type":"Buffer","data":[4,98,9,196,9,86,87,57,61,246,14,158,147,87,178,225,246,84,47,104]},"name":"IT 2017 New HDTS x264 AC3 TiTAN","announce":["udp://exodus.desync.com:6969","udp://open.demonii.com:1337","udp://tracker.coppersurfer.tk:6969","udp://tracker.leechers-paradise.org:6969","udp://zer0day.ch:1337"],"urlList":[]}}